<svg width="81" height="81" viewBox="0 0 81 81" fill="none" xmlns="http://www.w3.org/2000/svg">
<path d="M67.9476 28.5729L63.8468 34.7408C65.8244 38.6852 66.7926 43.0587 66.6646 47.4693C66.5366 51.8798 65.3164 56.1898 63.1133 60.0128H16.9035C14.0401 55.0455 12.8537 49.2876 13.5199 43.5929C14.1862 37.8982 16.6698 32.5698 20.6026 28.3976C24.5353 24.2254 29.7078 21.4315 35.3532 20.4301C40.9986 19.4288 46.8165 20.2732 51.9443 22.8383L58.1122 18.7375C51.8325 14.7107 44.3837 12.9062 36.9574 13.6128C29.531 14.3194 22.5562 17.4962 17.1486 22.635C11.7409 27.7738 8.2129 34.5777 7.12885 41.9584C6.04481 49.3391 7.46737 56.8701 11.169 63.3469C11.7508 64.3547 12.5862 65.1927 13.5923 65.7775C14.5983 66.3624 15.7399 66.6739 16.9035 66.6809H63.0799C64.2549 66.6856 65.4103 66.3797 66.429 65.7942C67.4477 65.2087 68.2937 64.3644 68.8812 63.3469C71.9531 58.0255 73.4947 51.9587 73.3358 45.8163C73.177 39.674 71.3238 33.695 67.981 28.5395L67.9476 28.5729Z" fill="#5874AC"/>
<path d="M35.3074 51.3773C35.9267 51.9972 36.6621 52.4891 37.4716 52.8246C38.2811 53.1602 39.1488 53.3329 40.0251 53.3329C40.9014 53.3329 41.769 53.1602 42.5785 52.8246C43.388 52.4891 44.1234 51.9972 44.7427 51.3773L63.6134 23.0713L35.3074 41.9419C34.6874 42.5612 34.1956 43.2966 33.86 44.1061C33.5245 44.9156 33.3517 45.7833 33.3517 46.6596C33.3517 47.5359 33.5245 48.4036 33.86 49.2131C34.1956 50.0226 34.6874 50.758 35.3074 51.3773Z" fill="#5874AC"/>
</svg>
