<svg width="81" height="81" viewBox="0 0 81 81" fill="none" xmlns="http://www.w3.org/2000/svg">
<path d="M39.9751 6.66797C21.5712 6.66797 6.66809 21.6045 6.66809 40.0083C6.66809 58.4122 21.5712 73.3487 39.9751 73.3487C58.4123 73.3487 73.3488 58.4122 73.3488 40.0083C73.3488 21.6045 58.4123 6.66797 39.9751 6.66797ZM40.0085 66.6806C25.272 66.6806 13.3362 54.7448 13.3362 40.0083C13.3362 25.2719 25.272 13.336 40.0085 13.336C54.7449 13.336 66.6807 25.2719 66.6807 40.0083C66.6807 54.7448 54.7449 66.6806 40.0085 66.6806ZM39.275 23.3382H39.0749C37.7413 23.3382 36.6744 24.405 36.6744 25.7387V41.4753C36.6744 42.6422 37.2745 43.7425 38.3081 44.3426L52.1444 52.6443C53.2779 53.3111 54.7449 52.9777 55.4117 51.8442C56.1119 50.7106 55.7451 49.2103 54.5782 48.5435L41.6755 40.8752V25.7387C41.6755 24.405 40.6086 23.3382 39.275 23.3382Z" fill="#5874AC"/>
</svg>
